<svg id="visual" viewBox="0 0 900 600" width="900" height="600" xmlns="http://www.w3.org/2000/svg" xmlns:xlink="http://www.w3.org/1999/xlink" version="1.1"><rect width="900" height="600" fill="#898981"></rect><g><g transform="translate(373 360)"><path d="M0 -26.7L26.7 0L0 26.7L-26.7 0Z" stroke="#000000" fill="none" stroke-width="2"></path></g><g transform="translate(288 83)"><path d="M0 -5L5 0L0 5L-5 0Z" stroke="#000000" fill="none" stroke-width="2"></path></g><g transform="translate(505 598)"><path d="M0 -13L13 0L0 13L-13 0Z" stroke="#000000" fill="none" stroke-width="2"></path></g><g transform="translate(855 424)"><path d="M0 -13L13 0L0 13L-13 0Z" stroke="#000000" fill="none" stroke-width="2"></path></g><g transform="translate(383 61)"><path d="M0 -3L3 0L0 3L-3 0Z" stroke="#000000" fill="none" stroke-width="2"></path></g><g transform="translate(812 556)"><path d="M0 -4L4 0L0 4L-4 0Z" stroke="#000000" fill="none" stroke-width="2"></path></g><g transform="translate(690 438)"><path d="M0 -9L9 0L0 9L-9 0Z" stroke="#000000" fill="none" stroke-width="2"></path></g><g transform="translate(870 31)"><path d="M0 -4L4 0L0 4L-4 0Z" stroke="#000000" fill="none" stroke-width="2"></path></g><g transform="translate(460 270)"><path d="M0 -7L7 0L0 7L-7 0Z" stroke="#000000" fill="none" stroke-width="2"></path></g><g transform="translate(339 583)"><path d="M0 -5L5 0L0 5L-5 0Z" stroke="#000000" fill="none" stroke-width="2"></path></g><g transform="translate(281 520)"><path d="M0 -12L12 0L0 12L-12 0Z" stroke="#000000" fill="none" stroke-width="2"></path></g><g transform="translate(400 160)"><path d="M0 -19L19 0L0 19L-19 0Z" stroke="#000000" fill="none" stroke-width="2"></path></g><g transform="translate(642 562)"><path d="M0 -18L18 0L0 18L-18 0Z" stroke="#000000" fill="none" stroke-width="2"></path></g><g transform="translate(42 247)"><path d="M0 -20L20 0L0 20L-20 0Z" stroke="#000000" fill="none" stroke-width="2"></path></g><g transform="translate(109 282)"><path d="M0 -20L20 0L0 20L-20 0Z" stroke="#000000" fill="none" stroke-width="2"></path></g><g transform="translate(760 378)"><path d="M0 -23L23 0L0 23L-23 0Z" stroke="#000000" fill="none" stroke-width="2"></path></g><g transform="translate(47 434)"><path d="M0 -6L6 0L0 6L-6 0Z" stroke="#000000" fill="none" stroke-width="2"></path></g><g transform="translate(292 437)"><path d="M0 -17L17 0L0 17L-17 0Z" stroke="#000000" fill="none" stroke-width="2"></path></g></g></svg>