<svg id="visual" viewBox="0 0 900 600" width="900" height="600" xmlns="http://www.w3.org/2000/svg" xmlns:xlink="http://www.w3.org/1999/xlink" version="1.1"><rect x="0" y="0" width="900" height="600" fill="#A8A89E"></rect><defs><linearGradient id="grad1_0" x1="33.3%" y1="0%" x2="100%" y2="100%"><stop offset="20%" stop-color="#000000" stop-opacity="1"></stop><stop offset="80%" stop-color="#000000" stop-opacity="1"></stop></linearGradient></defs><defs><linearGradient id="grad1_1" x1="33.3%" y1="0%" x2="100%" y2="100%"><stop offset="20%" stop-color="#000000" stop-opacity="1"></stop><stop offset="80%" stop-color="#1b1c14" stop-opacity="1"></stop></linearGradient></defs><defs><linearGradient id="grad1_2" x1="33.3%" y1="0%" x2="100%" y2="100%"><stop offset="20%" stop-color="#303028" stop-opacity="1"></stop><stop offset="80%" stop-color="#1b1c14" stop-opacity="1"></stop></linearGradient></defs><defs><linearGradient id="grad1_3" x1="33.3%" y1="0%" x2="100%" y2="100%"><stop offset="20%" stop-color="#303028" stop-opacity="1"></stop><stop offset="80%" stop-color="#46463d" stop-opacity="1"></stop></linearGradient></defs><defs><linearGradient id="grad1_4" x1="33.3%" y1="0%" x2="100%" y2="100%"><stop offset="20%" stop-color="#5d5d54" stop-opacity="1"></stop><stop offset="80%" stop-color="#46463d" stop-opacity="1"></stop></linearGradient></defs><defs><linearGradient id="grad1_5" x1="33.3%" y1="0%" x2="100%" y2="100%"><stop offset="20%" stop-color="#5d5d54" stop-opacity="1"></stop><stop offset="80%" stop-color="#75756c" stop-opacity="1"></stop></linearGradient></defs><defs><linearGradient id="grad1_6" x1="33.3%" y1="0%" x2="100%" y2="100%"><stop offset="20%" stop-color="#8e8e84" stop-opacity="1"></stop><stop offset="80%" stop-color="#75756c" stop-opacity="1"></stop></linearGradient></defs><defs><linearGradient id="grad1_7" x1="33.3%" y1="0%" x2="100%" y2="100%"><stop offset="20%" stop-color="#8e8e84" stop-opacity="1"></stop><stop offset="80%" stop-color="#a8a89e" stop-opacity="1"></stop></linearGradient></defs><defs><linearGradient id="grad2_0" x1="0%" y1="0%" x2="66.7%" y2="100%"><stop offset="20%" stop-color="#000000" stop-opacity="1"></stop><stop offset="80%" stop-color="#000000" stop-opacity="1"></stop></linearGradient></defs><defs><linearGradient id="grad2_1" x1="0%" y1="0%" x2="66.7%" y2="100%"><stop offset="20%" stop-color="#1b1c14" stop-opacity="1"></stop><stop offset="80%" stop-color="#000000" stop-opacity="1"></stop></linearGradient></defs><defs><linearGradient id="grad2_2" x1="0%" y1="0%" x2="66.7%" y2="100%"><stop offset="20%" stop-color="#1b1c14" stop-opacity="1"></stop><stop offset="80%" stop-color="#303028" stop-opacity="1"></stop></linearGradient></defs><defs><linearGradient id="grad2_3" x1="0%" y1="0%" x2="66.7%" y2="100%"><stop offset="20%" stop-color="#46463d" stop-opacity="1"></stop><stop offset="80%" stop-color="#303028" stop-opacity="1"></stop></linearGradient></defs><defs><linearGradient id="grad2_4" x1="0%" y1="0%" x2="66.7%" y2="100%"><stop offset="20%" stop-color="#46463d" stop-opacity="1"></stop><stop offset="80%" stop-color="#5d5d54" stop-opacity="1"></stop></linearGradient></defs><defs><linearGradient id="grad2_5" x1="0%" y1="0%" x2="66.7%" y2="100%"><stop offset="20%" stop-color="#75756c" stop-opacity="1"></stop><stop offset="80%" stop-color="#5d5d54" stop-opacity="1"></stop></linearGradient></defs><defs><linearGradient id="grad2_6" x1="0%" y1="0%" x2="66.7%" y2="100%"><stop offset="20%" stop-color="#75756c" stop-opacity="1"></stop><stop offset="80%" stop-color="#8e8e84" stop-opacity="1"></stop></linearGradient></defs><defs><linearGradient id="grad2_7" x1="0%" y1="0%" x2="66.7%" y2="100%"><stop offset="20%" stop-color="#a8a89e" stop-opacity="1"></stop><stop offset="80%" stop-color="#8e8e84" stop-opacity="1"></stop></linearGradient></defs><g transform="translate(900, 0)"><path d="M0 405.6C-19.5 387.5 -38.9 369.4 -55.7 351.6C-72.5 333.9 -86.6 316.4 -95.2 292.9C-103.8 269.4 -106.8 239.8 -117.1 229.9C-127.5 220 -145.1 229.8 -181 249.2C-217 268.6 -271.3 297.6 -286.8 286.8C-302.4 276 -279.2 225.4 -263.7 191.6C-248.3 157.8 -240.6 140.9 -256.6 130.7C-272.6 120.6 -312.4 117.1 -320.5 104.1C-328.6 91.2 -305.2 68.7 -314.1 49.7C-323 30.8 -364.3 15.4 -405.6 0L0 0Z" fill="#9b9b91"></path><path d="M0 354.9C-17 339.1 -34 323.2 -48.7 307.7C-63.4 292.1 -75.8 276.9 -83.3 256.3C-90.8 235.7 -93.4 209.8 -102.5 201.1C-111.5 192.5 -126.9 201 -158.4 218C-189.9 235 -237.4 260.4 -251 251C-264.6 241.5 -244.3 197.2 -230.8 167.7C-217.3 138.1 -210.5 123.3 -224.5 114.4C-238.6 105.5 -273.3 102.5 -280.4 91.1C-287.6 79.8 -267 60.1 -274.8 43.5C-282.6 27 -318.8 13.5 -354.9 0L0 0Z" fill="#818178"></path><path d="M0 304.2C-14.6 290.6 -29.2 277 -41.8 263.7C-54.4 250.4 -64.9 237.3 -71.4 219.7C-77.8 202.1 -80.1 179.8 -87.8 172.4C-95.6 165 -108.8 172.3 -135.8 186.9C-162.7 201.4 -203.5 223.2 -215.1 215.1C-226.8 207 -209.4 169 -197.8 143.7C-186.2 118.4 -180.4 105.7 -192.5 98.1C-204.5 90.4 -234.3 87.8 -240.4 78.1C-246.5 68.4 -228.9 51.5 -235.6 37.3C-242.3 23.1 -273.2 11.6 -304.2 0L0 0Z" fill="#696960"></path><path d="M0 253.5C-12.2 242.2 -24.3 230.9 -34.8 219.8C-45.3 208.7 -54.1 197.8 -59.5 183.1C-64.8 168.4 -66.7 149.9 -73.2 143.7C-79.7 137.5 -90.7 143.6 -113.1 155.7C-135.6 167.9 -169.5 186 -179.3 179.3C-189 172.5 -174.5 140.9 -164.8 119.8C-155.2 98.7 -150.4 88.1 -160.4 81.7C-170.4 75.4 -195.2 73.2 -200.3 65.1C-205.4 57 -190.7 42.9 -196.3 31.1C-201.9 19.3 -227.7 9.6 -253.5 0L0 0Z" fill="#515148"></path><path d="M0 202.8C-9.7 193.8 -19.5 184.7 -27.8 175.8C-36.2 166.9 -43.3 158.2 -47.6 146.5C-51.9 134.7 -53.4 119.9 -58.6 114.9C-63.7 110 -72.5 114.9 -90.5 124.6C-108.5 134.3 -135.6 148.8 -143.4 143.4C-151.2 138 -139.6 112.7 -131.9 95.8C-124.1 78.9 -120.3 70.5 -128.3 65.4C-136.3 60.3 -156.2 58.6 -160.3 52.1C-164.3 45.6 -152.6 34.3 -157 24.9C-161.5 15.4 -182.2 7.7 -202.8 0L0 0Z" fill="#3b3b32"></path><path d="M0 152.1C-7.3 145.3 -14.6 138.5 -20.9 131.9C-27.2 125.2 -32.5 118.7 -35.7 109.8C-38.9 101 -40 89.9 -43.9 86.2C-47.8 82.5 -54.4 86.2 -67.9 93.4C-81.4 100.7 -101.7 111.6 -107.6 107.6C-113.4 103.5 -104.7 84.5 -98.9 71.9C-93.1 59.2 -90.2 52.9 -96.2 49C-102.2 45.2 -117.1 43.9 -120.2 39.1C-123.2 34.2 -114.4 25.8 -117.8 18.7C-121.1 11.6 -136.6 5.8 -152.1 0L0 0Z" fill="#25261e"></path><path d="M0 101.4C-4.9 96.9 -9.7 92.3 -13.9 87.9C-18.1 83.5 -21.6 79.1 -23.8 73.2C-25.9 67.4 -26.7 59.9 -29.3 57.5C-31.9 55 -36.3 57.4 -45.3 62.3C-54.2 67.1 -67.8 74.4 -71.7 71.7C-75.6 69 -69.8 56.3 -65.9 47.9C-62.1 39.5 -60.1 35.2 -64.2 32.7C-68.2 30.1 -78.1 29.3 -80.1 26C-82.2 22.8 -76.3 17.2 -78.5 12.4C-80.8 7.7 -91.1 3.9 -101.4 0L0 0Z" fill="#111105"></path><path d="M0 50.7C-2.4 48.4 -4.9 46.2 -7 44C-9.1 41.7 -10.8 39.6 -11.9 36.6C-13 33.7 -13.3 30 -14.6 28.7C-15.9 27.5 -18.1 28.7 -22.6 31.1C-27.1 33.6 -33.9 37.2 -35.9 35.9C-37.8 34.5 -34.9 28.2 -33 24C-31 19.7 -30.1 17.6 -32.1 16.3C-34.1 15.1 -39 14.6 -40.1 13C-41.1 11.4 -38.1 8.6 -39.3 6.2C-40.4 3.9 -45.5 1.9 -50.7 0L0 0Z" fill="#000000"></path></g><g transform="translate(0, 600)"><path d="M0 -405.6C9.9 -342.4 19.7 -279.1 46.1 -291.4C72.6 -303.6 115.6 -391.3 124.2 -382.3C132.8 -373.3 106.9 -267.5 131.7 -258.4C156.4 -249.2 231.7 -336.7 238.4 -328.2C245.2 -319.6 183.4 -215.1 181.7 -181.7C180.1 -148.4 238.6 -186.1 254 -184.6C269.5 -183 241.8 -142.1 234.3 -119.4C226.9 -96.7 239.6 -92.4 263.4 -85.6C287.3 -78.8 322.1 -69.7 347.7 -55.1C373.2 -40.4 389.4 -20.2 405.6 0L0 0Z" fill="#9b9b91"></path><path d="M0 -354.9C8.6 -299.6 17.2 -244.2 40.4 -254.9C63.5 -265.7 101.2 -342.4 108.7 -334.5C116.2 -326.6 93.6 -234.1 115.2 -226.1C136.8 -218.1 202.7 -294.6 208.6 -287.1C214.5 -279.7 160.4 -188.2 159 -159C157.6 -129.8 208.8 -162.9 222.3 -161.5C235.8 -160.1 211.6 -124.3 205 -104.5C198.5 -84.6 209.7 -80.8 230.5 -74.9C251.3 -69 281.9 -61 304.2 -48.2C326.6 -35.4 340.7 -17.7 354.9 0L0 0Z" fill="#818178"></path><path d="M0 -304.2C7.4 -256.8 14.8 -209.3 34.6 -218.5C54.4 -227.7 86.7 -293.5 93.2 -286.7C99.6 -280 80.2 -200.7 98.7 -193.8C117.3 -186.9 173.8 -252.5 178.8 -246.1C183.9 -239.7 137.5 -161.3 136.3 -136.3C135.1 -111.3 179 -139.6 190.5 -138.4C202.1 -137.2 181.3 -106.5 175.8 -89.5C170.2 -72.6 179.7 -69.3 197.6 -64.2C215.4 -59.1 241.6 -52.3 260.7 -41.3C279.9 -30.3 292.1 -15.2 304.2 0L0 0Z" fill="#696960"></path><path d="M0 -253.5C6.2 -214 12.3 -174.5 28.8 -182.1C45.4 -189.8 72.3 -244.6 77.6 -239C83 -233.3 66.8 -167.2 82.3 -161.5C97.7 -155.8 144.8 -210.4 149 -205.1C153.2 -199.8 114.6 -134.4 113.6 -113.6C112.6 -92.7 149.1 -116.3 158.8 -115.4C168.4 -114.4 151.1 -88.8 146.5 -74.6C141.8 -60.5 149.8 -57.7 164.7 -53.5C179.5 -49.3 201.3 -43.6 217.3 -34.4C233.3 -25.3 243.4 -12.6 253.5 0L0 0Z" fill="#515148"></path><path d="M0 -202.8C4.9 -171.2 9.9 -139.6 23.1 -145.7C36.3 -151.8 57.8 -195.7 62.1 -191.2C66.4 -186.7 53.5 -133.8 65.8 -129.2C78.2 -124.6 115.8 -168.3 119.2 -164.1C122.6 -159.8 91.7 -107.5 90.9 -90.9C90 -74.2 119.3 -93.1 127 -92.3C134.7 -91.5 120.9 -71 117.2 -59.7C113.4 -48.4 119.8 -46.2 131.7 -42.8C143.6 -39.4 161.1 -34.9 173.8 -27.5C186.6 -20.2 194.7 -10.1 202.8 0L0 0Z" fill="#3b3b32"></path><path d="M0 -152.1C3.7 -128.4 7.4 -104.7 17.3 -109.3C27.2 -113.9 43.4 -146.8 46.6 -143.4C49.8 -140 40.1 -100.3 49.4 -96.9C58.6 -93.5 86.9 -126.3 89.4 -123.1C91.9 -119.9 68.8 -80.7 68.1 -68.1C67.5 -55.6 89.5 -69.8 95.3 -69.2C101 -68.6 90.7 -53.3 87.9 -44.8C85.1 -36.3 89.9 -34.6 98.8 -32.1C107.7 -29.6 120.8 -26.1 130.4 -20.6C140 -15.2 146 -7.6 152.1 0L0 0Z" fill="#25261e"></path><path d="M0 -101.4C2.5 -85.6 4.9 -69.8 11.5 -72.8C18.1 -75.9 28.9 -97.8 31.1 -95.6C33.2 -93.3 26.7 -66.9 32.9 -64.6C39.1 -62.3 57.9 -84.2 59.6 -82C61.3 -79.9 45.8 -53.8 45.4 -45.4C45 -37.1 59.7 -46.5 63.5 -46.1C67.4 -45.7 60.4 -35.5 58.6 -29.8C56.7 -24.2 59.9 -23.1 65.9 -21.4C71.8 -19.7 80.5 -17.4 86.9 -13.8C93.3 -10.1 97.4 -5.1 101.4 0L0 0Z" fill="#111105"></path><path d="M0 -50.7C1.2 -42.8 2.5 -34.9 5.8 -36.4C9.1 -38 14.5 -48.9 15.5 -47.8C16.6 -46.7 13.4 -33.4 16.5 -32.3C19.5 -31.2 29 -42.1 29.8 -41C30.6 -40 22.9 -26.9 22.7 -22.7C22.5 -18.5 29.8 -23.3 31.8 -23.1C33.7 -22.9 30.2 -17.8 29.3 -14.9C28.4 -12.1 30 -11.5 32.9 -10.7C35.9 -9.9 40.3 -8.7 43.5 -6.9C46.7 -5.1 48.7 -2.5 50.7 0L0 0Z" fill="#000000"></path></g></svg>