<svg xmlns="http://www.w3.org/2000/svg" version="1.1" xmlns:xlink="http://www.w3.org/1999/xlink" xmlns:svgjs="http://svgjs.dev/svgjs" viewBox="0 0 800 800"><defs><linearGradient x1="50%" y1="0%" x2="50%" y2="100%" id="ffflurry-grad" gradientTransform="rotate(270)"><stop stop-color="hsl(0, 0%, 80%)" stop-opacity="1" offset="0%"></stop><stop stop-color="hsl(0, 0%, 27%)" stop-opacity="1" offset="45%"></stop><stop stop-color="hsl(0, 0%, 0%)" stop-opacity="1" offset="100%"></stop></linearGradient></defs><rect width="100%" height="100%" fill="hsl(0, 0%, 80%)"></rect><g fill="url(#ffflurry-grad)"><rect width="322" height="4" x="374" y="294" rx="2" transform="rotate(45, 535, 296)" opacity="0.65"></rect><rect width="204" height="4" x="556" y="411" rx="2" transform="rotate(45, 658, 413)" opacity="0.33"></rect><rect width="438" height="4" x="-83" y="249" rx="2" transform="rotate(45, 136, 251)" opacity="0.94"></rect><rect width="73" height="4" x="7.5" y="634" rx="2" transform="rotate(45, 44, 636)" opacity="0.13"></rect><rect width="99" height="4" x="538.5" y="623" rx="2" transform="rotate(45, 588, 625)" opacity="0.47"></rect><rect width="378" height="4" x="149" y="112" rx="2" transform="rotate(45, 338, 114)" opacity="0.21"></rect><rect width="304" height="4" x="305" y="242" rx="2" transform="rotate(45, 457, 244)" opacity="0.10"></rect><rect width="454" height="4" x="414" y="558" rx="2" transform="rotate(45, 641, 560)" opacity="0.32"></rect><rect width="42" height="4" x="528" y="687" rx="2" transform="rotate(45, 549, 689)" opacity="0.96"></rect><rect width="291" height="4" x="583.5" y="43" rx="2" transform="rotate(45, 729, 45)" opacity="0.55"></rect><rect width="584" height="4" x="200" y="433" rx="2" transform="rotate(45, 492, 435)" opacity="0.14"></rect><rect width="339" height="4" x="39.5" y="660" rx="2" transform="rotate(45, 209, 662)" opacity="0.09"></rect><rect width="88" height="4" x="215" y="564" rx="2" transform="rotate(45, 259, 566)" opacity="0.47"></rect><rect width="106" height="4" x="390" y="98" rx="2" transform="rotate(45, 443, 100)" opacity="0.43"></rect><rect width="193" height="4" x="305.5" y="162" rx="2" transform="rotate(45, 402, 164)" opacity="0.56"></rect><rect width="352" height="4" x="-58" y="53" rx="2" transform="rotate(45, 118, 55)" opacity="0.31"></rect><rect width="401" height="4" x="25.5" y="146" rx="2" transform="rotate(45, 226, 148)" opacity="0.77"></rect><rect width="152" height="4" x="-37" y="768" rx="2" transform="rotate(45, 39, 770)" opacity="0.31"></rect><rect width="421" height="4" x="548.5" y="248" rx="2" transform="rotate(45, 759, 250)" opacity="0.61"></rect><rect width="480" height="4" x="171" y="741" rx="2" transform="rotate(45, 411, 743)" opacity="0.29"></rect><rect width="270" height="4" x="208" y="588" rx="2" transform="rotate(45, 343, 590)" opacity="0.67"></rect><rect width="106" height="4" x="671" y="459" rx="2" transform="rotate(45, 724, 461)" opacity="0.50"></rect><rect width="368" height="4" x="92" y="404" rx="2" transform="rotate(45, 276, 406)" opacity="0.58"></rect><rect width="335" height="4" x="243.5" y="33" rx="2" transform="rotate(45, 411, 35)" opacity="0.52"></rect><rect width="120" height="4" x="132" y="53" rx="2" transform="rotate(45, 192, 55)" opacity="0.69"></rect><rect width="265" height="4" x="22.5" y="755" rx="2" transform="rotate(45, 155, 757)" opacity="0.72"></rect><rect width="55" height="4" x="540.5" y="161" rx="2" transform="rotate(45, 568, 163)" opacity="0.24"></rect><rect width="275" height="4" x="476.5" y="28" rx="2" transform="rotate(45, 614, 30)" opacity="0.91"></rect><rect width="410" height="4" x="140" y="316" rx="2" transform="rotate(45, 345, 318)" opacity="0.21"></rect><rect width="45" height="4" x="64.5" y="715" rx="2" transform="rotate(45, 87, 717)" opacity="0.15"></rect><rect width="212" height="4" x="613" y="618" rx="2" transform="rotate(45, 719, 620)" opacity="0.97"></rect><rect width="527" height="4" x="-94.5" y="500" rx="2" transform="rotate(45, 169, 502)" opacity="0.50"></rect><rect width="196" height="4" x="485" y="362" rx="2" transform="rotate(45, 583, 364)" opacity="0.37"></rect><rect width="322" height="4" x="139" y="220" rx="2" transform="rotate(45, 300, 222)" opacity="0.79"></rect><rect width="445" height="4" x="-184.5" y="56" rx="2" transform="rotate(45, 38, 58)" opacity="0.70"></rect><rect width="293" height="4" x="411.5" y="515" rx="2" transform="rotate(45, 558, 517)" opacity="0.76"></rect><rect width="301" height="4" x="345.5" y="612" rx="2" transform="rotate(45, 496, 614)" opacity="0.63"></rect><rect width="263" height="4" x="357.5" y="147" rx="2" transform="rotate(45, 489, 149)" opacity="0.13"></rect><rect width="463" height="4" x="-186.5" y="301" rx="2" transform="rotate(45, 45, 303)" opacity="0.91"></rect><rect width="404" height="4" x="452" y="719" rx="2" transform="rotate(45, 654, 721)" opacity="0.57"></rect><rect width="320" height="4" x="608" y="546" rx="2" transform="rotate(45, 768, 548)" opacity="0.33"></rect><rect width="293" height="4" x="133.5" y="734" rx="2" transform="rotate(45, 280, 736)" opacity="0.16"></rect><rect width="67" height="4" x="600.5" y="226" rx="2" transform="rotate(45, 634, 228)" opacity="0.35"></rect><rect width="381" height="4" x="-53.5" y="625" rx="2" transform="rotate(45, 137, 627)" opacity="0.21"></rect><rect width="65" height="4" x="715.5" y="734" rx="2" transform="rotate(45, 748, 736)" opacity="0.66"></rect><rect width="406" height="4" x="545" y="134" rx="2" transform="rotate(45, 748, 136)" opacity="0.56"></rect><rect width="474" height="4" x="-11" y="280" rx="2" transform="rotate(45, 226, 282)" opacity="0.79"></rect><rect width="66" height="4" x="29" y="558" rx="2" transform="rotate(45, 62, 560)" opacity="0.33"></rect><rect width="370" height="4" x="478" y="150" rx="2" transform="rotate(45, 663, 152)" opacity="0.09"></rect><rect width="274" height="4" x="410" y="761" rx="2" transform="rotate(45, 547, 763)" opacity="0.11"></rect><rect width="386" height="4" x="216" y="644" rx="2" transform="rotate(45, 409, 646)" opacity="0.39"></rect><rect width="404" height="4" x="238" y="530" rx="2" transform="rotate(45, 440, 532)" opacity="0.53"></rect><rect width="345" height="4" x="209.5" y="230" rx="2" transform="rotate(45, 382, 232)" opacity="0.14"></rect><rect width="87" height="4" x="-19.5" y="694" rx="2" transform="rotate(45, 24, 696)" opacity="0.30"></rect><rect width="280" height="4" x="221" y="464" rx="2" transform="rotate(45, 361, 466)" opacity="0.17"></rect><rect width="69" height="4" x="496.5" y="215" rx="2" transform="rotate(45, 531, 217)" opacity="0.19"></rect><rect width="305" height="4" x="552.5" y="318" rx="2" transform="rotate(45, 705, 320)" opacity="0.85"></rect><rect width="306" height="4" x="455" y="97" rx="2" transform="rotate(45, 608, 99)" opacity="0.76"></rect><rect width="131" height="4" x="85.5" y="383" rx="2" transform="rotate(45, 151, 385)" opacity="0.99"></rect><rect width="292" height="4" x="288" y="349" rx="2" transform="rotate(45, 434, 351)" opacity="0.42"></rect><rect width="320" height="4" x="128" y="39" rx="2" transform="rotate(45, 288, 41)" opacity="0.78"></rect><rect width="370" height="4" x="-112" y="161" rx="2" transform="rotate(45, 73, 163)" opacity="0.50"></rect><rect width="371" height="4" x="-137.5" y="448" rx="2" transform="rotate(45, 48, 450)" opacity="0.44"></rect><rect width="172" height="4" x="436" y="51" rx="2" transform="rotate(45, 522, 53)" opacity="0.07"></rect></g></svg>