<svg id="visual" viewBox="0 0 900 600" width="900" height="600" xmlns="http://www.w3.org/2000/svg" xmlns:xlink="http://www.w3.org/1999/xlink" version="1.1"><path d="M0 432L129 432L129 406L257 406L257 440L386 440L386 456L514 456L514 459L643 459L643 437L771 437L771 440L900 440L900 427L900 601L900 601L771 601L771 601L643 601L643 601L514 601L514 601L386 601L386 601L257 601L257 601L129 601L129 601L0 601Z" fill="#000000"></path><path d="M0 474L129 474L129 482L257 482L257 520L386 520L386 513L514 513L514 468L643 468L643 496L771 496L771 490L900 490L900 471L900 601L900 601L771 601L771 601L643 601L643 601L514 601L514 601L386 601L386 601L257 601L257 601L129 601L129 601L0 601Z" fill="#515148"></path><path d="M0 550L129 550L129 528L257 528L257 536L386 536L386 513L514 513L514 534L643 534L643 550L771 550L771 556L900 556L900 513L900 601L900 601L771 601L771 601L643 601L643 601L514 601L514 601L386 601L386 601L257 601L257 601L129 601L129 601L0 601Z" fill="#a8a89e"></path></svg>