<svg xmlns="http://www.w3.org/2000/svg" version="1.1" xmlns:xlink="http://www.w3.org/1999/xlink" xmlns:svgjs="http://svgjs.com/svgjs" width="1440" height="560" preserveAspectRatio="none" viewBox="0 0 1440 560"><g mask="url(&quot;#SvgjsMask1000&quot;)" fill="none"><rect width="1440" height="560" x="0" y="0" fill="#0e2a47"></rect><path d="M57 287L-340 -110" stroke-width="10" stroke="url(#SvgjsLinearGradient1001)" stroke-linecap="round" class="TopLeft"></path><path d="M685 239L363 -83" stroke-width="8" stroke="url(#SvgjsLinearGradient1001)" stroke-linecap="round" class="TopLeft"></path><path d="M650 361L435 146" stroke-width="10" stroke="url(#SvgjsLinearGradient1002)" stroke-linecap="round" class="BottomRight"></path><path d="M912 546L573 207" stroke-width="10" stroke="url(#SvgjsLinearGradient1001)" stroke-linecap="round" class="TopLeft"></path><path d="M1184 291L1509 616" stroke-width="8" stroke="url(#SvgjsLinearGradient1001)" stroke-linecap="round" class="TopLeft"></path><path d="M993 517L778 302" stroke-width="8" stroke="url(#SvgjsLinearGradient1002)" stroke-linecap="round" class="BottomRight"></path><path d="M1032 284L1395 647" stroke-width="6" stroke="url(#SvgjsLinearGradient1002)" stroke-linecap="round" class="BottomRight"></path><path d="M751 491L495 235" stroke-width="8" stroke="url(#SvgjsLinearGradient1001)" stroke-linecap="round" class="TopLeft"></path><path d="M794 253L486 -55" stroke-width="10" stroke="url(#SvgjsLinearGradient1002)" stroke-linecap="round" class="BottomRight"></path><path d="M366 132L190 -44" stroke-width="6" stroke="url(#SvgjsLinearGradient1001)" stroke-linecap="round" class="TopLeft"></path><path d="M90 60L359 329" stroke-width="10" stroke="url(#SvgjsLinearGradient1001)" stroke-linecap="round" class="TopLeft"></path><path d="M465 541L303 379" stroke-width="8" stroke="url(#SvgjsLinearGradient1002)" stroke-linecap="round" class="BottomRight"></path><path d="M1087 308L1247 468" stroke-width="10" stroke="url(#SvgjsLinearGradient1002)" stroke-linecap="round" class="BottomRight"></path><path d="M1387 289L979 -119" stroke-width="10" stroke="url(#SvgjsLinearGradient1002)" stroke-linecap="round" class="BottomRight"></path><path d="M34 535L339 840" stroke-width="10" stroke="url(#SvgjsLinearGradient1002)" stroke-linecap="round" class="BottomRight"></path><path d="M816 501L469 154" stroke-width="10" stroke="url(#SvgjsLinearGradient1002)" stroke-linecap="round" class="BottomRight"></path><path d="M55 199L407 551" stroke-width="10" stroke="url(#SvgjsLinearGradient1002)" stroke-linecap="round" class="BottomRight"></path><path d="M419 43L96 -280" stroke-width="8" stroke="url(#SvgjsLinearGradient1001)" stroke-linecap="round" class="TopLeft"></path><path d="M681 2L438 -241" stroke-width="6" stroke="url(#SvgjsLinearGradient1002)" stroke-linecap="round" class="BottomRight"></path><path d="M1319 283L1592 556" stroke-width="6" stroke="url(#SvgjsLinearGradient1002)" stroke-linecap="round" class="BottomRight"></path><path d="M1341 346L1551 556" stroke-width="6" stroke="url(#SvgjsLinearGradient1002)" stroke-linecap="round" class="BottomRight"></path><path d="M127 309L340 522" stroke-width="6" stroke="url(#SvgjsLinearGradient1001)" stroke-linecap="round" class="TopLeft"></path><path d="M1045 81L903 -61" stroke-width="10" stroke="url(#SvgjsLinearGradient1001)" stroke-linecap="round" class="TopLeft"></path><path d="M446 325L223 102" stroke-width="10" stroke="url(#SvgjsLinearGradient1001)" stroke-linecap="round" class="TopLeft"></path><path d="M89 27L311 249" stroke-width="10" stroke="url(#SvgjsLinearGradient1001)" stroke-linecap="round" class="TopLeft"></path><path d="M9 441L-349 83" stroke-width="6" stroke="url(#SvgjsLinearGradient1001)" stroke-linecap="round" class="TopLeft"></path><path d="M932 247L647 -38" stroke-width="10" stroke="url(#SvgjsLinearGradient1001)" stroke-linecap="round" class="TopLeft"></path><path d="M32 193L-181 -20" stroke-width="8" stroke="url(#SvgjsLinearGradient1002)" stroke-linecap="round" class="BottomRight"></path><path d="M780 498L1111 829" stroke-width="8" stroke="url(#SvgjsLinearGradient1002)" stroke-linecap="round" class="BottomRight"></path><path d="M1195 164L1374 343" stroke-width="10" stroke="url(#SvgjsLinearGradient1001)" stroke-linecap="round" class="TopLeft"></path><path d="M79 550L431 902" stroke-width="6" stroke="url(#SvgjsLinearGradient1001)" stroke-linecap="round" class="TopLeft"></path><path d="M861 439L641 219" stroke-width="6" stroke="url(#SvgjsLinearGradient1001)" stroke-linecap="round" class="TopLeft"></path><path d="M1214 147L1491 424" stroke-width="8" stroke="url(#SvgjsLinearGradient1002)" stroke-linecap="round" class="BottomRight"></path><path d="M100 143L-123 -80" stroke-width="10" stroke="url(#SvgjsLinearGradient1002)" stroke-linecap="round" class="BottomRight"></path><path d="M14 430L-356 60" stroke-width="6" stroke="url(#SvgjsLinearGradient1002)" stroke-linecap="round" class="BottomRight"></path><path d="M451 415L745 709" stroke-width="10" stroke="url(#SvgjsLinearGradient1001)" stroke-linecap="round" class="TopLeft"></path><path d="M121 254L471 604" stroke-width="6" stroke="url(#SvgjsLinearGradient1002)" stroke-linecap="round" class="BottomRight"></path><path d="M275 506L-13 218" stroke-width="8" stroke="url(#SvgjsLinearGradient1001)" stroke-linecap="round" class="TopLeft"></path><path d="M674 559L981 866" stroke-width="8" stroke="url(#SvgjsLinearGradient1001)" stroke-linecap="round" class="TopLeft"></path></g><defs><mask id="SvgjsMask1000"><rect width="1440" height="560" fill="#ffffff"></rect></mask><linearGradient x1="100%" y1="100%" x2="0%" y2="0%" id="SvgjsLinearGradient1001"><stop stop-color="rgba(28, 83, 142, 0)" offset="0"></stop><stop stop-color="#1c538e" offset="1"></stop></linearGradient><linearGradient x1="0%" y1="0%" x2="100%" y2="100%" id="SvgjsLinearGradient1002"><stop stop-color="rgba(28, 83, 142, 0)" offset="0"></stop><stop stop-color="#1c538e" offset="1"></stop></linearGradient></defs></svg>