<svg id="visual" viewBox="0 0 900 600" width="900" height="600" xmlns="http://www.w3.org/2000/svg" xmlns:xlink="http://www.w3.org/1999/xlink" version="1.1"><rect width="900" height="600" fill="#898981"></rect><g><g transform="translate(842 249)"><path d="M0 -141.2L141.2 0L0 141.2L-141.2 0Z" fill="none" stroke="#000000" stroke-width="2"></path></g><g transform="translate(156 315)"><path d="M0 -63L63 0L0 63L-63 0Z" fill="none" stroke="#000000" stroke-width="2"></path></g><g transform="translate(787 558)"><path d="M0 -30L30 0L0 30L-30 0Z" stroke="#000000" fill="none" stroke-width="2"></path></g><g transform="translate(546 31)"><path d="M0 -29L29 0L0 29L-29 0Z" stroke="#000000" fill="none" stroke-width="2"></path></g><g transform="translate(27 12)"><path d="M0 -32L32 0L0 32L-32 0Z" stroke="#000000" fill="none" stroke-width="2"></path></g><g transform="translate(506 391)"><path d="M0 -28L28 0L0 28L-28 0Z" stroke="#000000" fill="none" stroke-width="2"></path></g><g transform="translate(284 574)"><path d="M0 -48L48 0L0 48L-48 0Z" stroke="#000000" fill="none" stroke-width="2"></path></g></g></svg>