<?xml version="1.0" standalone="no"?>
<svg xmlns:xlink="http://www.w3.org/1999/xlink" id="wave" style="transform:rotate(0deg); transition: 0.3s" viewBox="0 0 1440 490" version="1.1" xmlns="http://www.w3.org/2000/svg"><defs><linearGradient id="sw-gradient-0" x1="0" x2="0" y1="1" y2="0"><stop stop-color="rgba(0, 0, 0, 1)" offset="0%"/><stop stop-color="rgba(130.097, 125.85, 116.463, 1)" offset="100%"/></linearGradient></defs><path style="transform:translate(0, 0px); opacity:1" fill="url(#sw-gradient-0)" d="M0,147L34.3,196C68.6,245,137,343,206,367.5C274.3,392,343,343,411,277.7C480,212,549,131,617,147C685.7,163,754,278,823,318.5C891.4,359,960,327,1029,277.7C1097.1,229,1166,163,1234,163.3C1302.9,163,1371,229,1440,261.3C1508.6,294,1577,294,1646,245C1714.3,196,1783,98,1851,122.5C1920,147,1989,294,2057,367.5C2125.7,441,2194,441,2263,367.5C2331.4,294,2400,147,2469,122.5C2537.1,98,2606,196,2674,220.5C2742.9,245,2811,196,2880,196C2948.6,196,3017,245,3086,269.5C3154.3,294,3223,294,3291,261.3C3360,229,3429,163,3497,138.8C3565.7,114,3634,131,3703,187.8C3771.4,245,3840,343,3909,326.7C3977.1,310,4046,180,4114,179.7C4182.9,180,4251,310,4320,351.2C4388.6,392,4457,343,4526,269.5C4594.3,196,4663,98,4731,57.2C4800,16,4869,33,4903,40.8L4937.1,49L4937.1,490L4902.9,490C4868.6,490,4800,490,4731,490C4662.9,490,4594,490,4526,490C4457.1,490,4389,490,4320,490C4251.4,490,4183,490,4114,490C4045.7,490,3977,490,3909,490C3840,490,3771,490,3703,490C3634.3,490,3566,490,3497,490C3428.6,490,3360,490,3291,490C3222.9,490,3154,490,3086,490C3017.1,490,2949,490,2880,490C2811.4,490,2743,490,2674,490C2605.7,490,2537,490,2469,490C2400,490,2331,490,2263,490C2194.3,490,2126,490,2057,490C1988.6,490,1920,490,1851,490C1782.9,490,1714,490,1646,490C1577.1,490,1509,490,1440,490C1371.4,490,1303,490,1234,490C1165.7,490,1097,490,1029,490C960,490,891,490,823,490C754.3,490,686,490,617,490C548.6,490,480,490,411,490C342.9,490,274,490,206,490C137.1,490,69,490,34,490L0,490Z"/><defs><linearGradient id="sw-gradient-1" x1="0" x2="0" y1="1" y2="0"><stop stop-color="rgba(7.151, 6.369, 6.119, 1)" offset="0%"/><stop stop-color="rgba(255, 255, 255, 1)" offset="100%"/></linearGradient></defs><path style="transform:translate(0, 50px); opacity:0.9" fill="url(#sw-gradient-1)" d="M0,49L34.3,73.5C68.6,98,137,147,206,179.7C274.3,212,343,229,411,253.2C480,278,549,310,617,318.5C685.7,327,754,310,823,318.5C891.4,327,960,359,1029,383.8C1097.1,408,1166,425,1234,367.5C1302.9,310,1371,180,1440,147C1508.6,114,1577,180,1646,212.3C1714.3,245,1783,245,1851,245C1920,245,1989,245,2057,220.5C2125.7,196,2194,147,2263,147C2331.4,147,2400,196,2469,220.5C2537.1,245,2606,245,2674,220.5C2742.9,196,2811,147,2880,147C2948.6,147,3017,196,3086,220.5C3154.3,245,3223,245,3291,236.8C3360,229,3429,212,3497,204.2C3565.7,196,3634,196,3703,220.5C3771.4,245,3840,294,3909,277.7C3977.1,261,4046,180,4114,163.3C4182.9,147,4251,196,4320,220.5C4388.6,245,4457,245,4526,212.3C4594.3,180,4663,114,4731,81.7C4800,49,4869,49,4903,49L4937.1,49L4937.1,490L4902.9,490C4868.6,490,4800,490,4731,490C4662.9,490,4594,490,4526,490C4457.1,490,4389,490,4320,490C4251.4,490,4183,490,4114,490C4045.7,490,3977,490,3909,490C3840,490,3771,490,3703,490C3634.3,490,3566,490,3497,490C3428.6,490,3360,490,3291,490C3222.9,490,3154,490,3086,490C3017.1,490,2949,490,2880,490C2811.4,490,2743,490,2674,490C2605.7,490,2537,490,2469,490C2400,490,2331,490,2263,490C2194.3,490,2126,490,2057,490C1988.6,490,1920,490,1851,490C1782.9,490,1714,490,1646,490C1577.1,490,1509,490,1440,490C1371.4,490,1303,490,1234,490C1165.7,490,1097,490,1029,490C960,490,891,490,823,490C754.3,490,686,490,617,490C548.6,490,480,490,411,490C342.9,490,274,490,206,490C137.1,490,69,490,34,490L0,490Z"/></svg>