<?xml version="1.0" standalone="no"?>
<svg xmlns:xlink="http://www.w3.org/1999/xlink" id="wave" style="transform:rotate(0deg); transition: 0.3s" viewBox="0 0 1440 260" version="1.1" xmlns="http://www.w3.org/2000/svg"><defs><linearGradient id="sw-gradient-0" x1="0" x2="0" y1="1" y2="0"><stop stop-color="rgba(221.168, 221.168, 221.168, 1)" offset="0%"/><stop stop-color="rgba(0, 0, 0, 1)" offset="100%"/></linearGradient></defs><path style="transform:translate(0, 0px); opacity:1" fill="url(#sw-gradient-0)" d="M0,156L21.8,130C43.6,104,87,52,131,65C174.5,78,218,156,262,160.3C305.5,165,349,95,393,95.3C436.4,95,480,165,524,190.7C567.3,217,611,199,655,199.3C698.2,199,742,217,785,195C829.1,173,873,113,916,91C960,69,1004,87,1047,117C1090.9,147,1135,191,1178,190.7C1221.8,191,1265,147,1309,134.3C1352.7,121,1396,139,1440,138.7C1483.6,139,1527,121,1571,121.3C1614.5,121,1658,139,1702,151.7C1745.5,165,1789,173,1833,186.3C1876.4,199,1920,217,1964,208C2007.3,199,2051,165,2095,125.7C2138.2,87,2182,43,2225,26C2269.1,9,2313,17,2356,52C2400,87,2444,147,2487,151.7C2530.9,156,2575,104,2618,86.7C2661.8,69,2705,87,2749,78C2792.7,69,2836,35,2880,26C2923.6,17,2967,35,3011,43.3C3054.5,52,3098,52,3120,52L3141.8,52L3141.8,260L3120,260C3098.2,260,3055,260,3011,260C2967.3,260,2924,260,2880,260C2836.4,260,2793,260,2749,260C2705.5,260,2662,260,2618,260C2574.5,260,2531,260,2487,260C2443.6,260,2400,260,2356,260C2312.7,260,2269,260,2225,260C2181.8,260,2138,260,2095,260C2050.9,260,2007,260,1964,260C1920,260,1876,260,1833,260C1789.1,260,1745,260,1702,260C1658.2,260,1615,260,1571,260C1527.3,260,1484,260,1440,260C1396.4,260,1353,260,1309,260C1265.5,260,1222,260,1178,260C1134.5,260,1091,260,1047,260C1003.6,260,960,260,916,260C872.7,260,829,260,785,260C741.8,260,698,260,655,260C610.9,260,567,260,524,260C480,260,436,260,393,260C349.1,260,305,260,262,260C218.2,260,175,260,131,260C87.3,260,44,260,22,260L0,260Z"/><defs><linearGradient id="sw-gradient-1" x1="0" x2="0" y1="1" y2="0"><stop stop-color="rgba(218.892, 218.892, 218.892, 1)" offset="0%"/><stop stop-color="rgba(143.758, 132.998, 109.213, 1)" offset="100%"/></linearGradient></defs><path style="transform:translate(0, 50px); opacity:0.9" fill="url(#sw-gradient-1)" d="M0,52L21.8,69.3C43.6,87,87,121,131,117C174.5,113,218,69,262,52C305.5,35,349,43,393,69.3C436.4,95,480,139,524,147.3C567.3,156,611,130,655,125.7C698.2,121,742,139,785,151.7C829.1,165,873,173,916,156C960,139,1004,95,1047,73.7C1090.9,52,1135,52,1178,60.7C1221.8,69,1265,87,1309,117C1352.7,147,1396,191,1440,203.7C1483.6,217,1527,199,1571,173.3C1614.5,147,1658,113,1702,121.3C1745.5,130,1789,182,1833,177.7C1876.4,173,1920,113,1964,108.3C2007.3,104,2051,156,2095,169C2138.2,182,2182,156,2225,143C2269.1,130,2313,130,2356,112.7C2400,95,2444,61,2487,39C2530.9,17,2575,9,2618,34.7C2661.8,61,2705,121,2749,125.7C2792.7,130,2836,78,2880,60.7C2923.6,43,2967,61,3011,78C3054.5,95,3098,113,3120,121.3L3141.8,130L3141.8,260L3120,260C3098.2,260,3055,260,3011,260C2967.3,260,2924,260,2880,260C2836.4,260,2793,260,2749,260C2705.5,260,2662,260,2618,260C2574.5,260,2531,260,2487,260C2443.6,260,2400,260,2356,260C2312.7,260,2269,260,2225,260C2181.8,260,2138,260,2095,260C2050.9,260,2007,260,1964,260C1920,260,1876,260,1833,260C1789.1,260,1745,260,1702,260C1658.2,260,1615,260,1571,260C1527.3,260,1484,260,1440,260C1396.4,260,1353,260,1309,260C1265.5,260,1222,260,1178,260C1134.5,260,1091,260,1047,260C1003.6,260,960,260,916,260C872.7,260,829,260,785,260C741.8,260,698,260,655,260C610.9,260,567,260,524,260C480,260,436,260,393,260C349.1,260,305,260,262,260C218.2,260,175,260,131,260C87.3,260,44,260,22,260L0,260Z"/></svg>